<svg xmlns="http://www.w3.org/2000/svg" version="1.1" xmlns:xlink="http://www.w3.org/1999/xlink" xmlns:svgjs="http://svgjs.com/svgjs" width="1500.000000pt" height="1600.000000pt"><svg version="1.0" xmlns="http://www.w3.org/2000/svg" width="1500.000000pt" height="1600.000000pt" viewBox="0 0 1500.000000 1600.000000" preserveAspectRatio="xMidYMid meet">
<metadata>
Created by potrace 1.16, written by Peter Selinger 2001-2019
</metadata>
<g transform="translate(0.000000,1600.000000) scale(0.100000,-0.100000)"  stroke="none">
<path d="M8918 13879 c-56 -31 -165 -394 -262 -872 -9 -42 -22 -110 -30 -150
-9 -39 -22 -111 -31 -159 -16 -94 -36 -208 -60 -340 -8 -46 -21 -126 -30 -178
-9 -52 -22 -129 -30 -170 -14 -77 -33 -191 -61 -365 -19 -119 -39 -246 -59
-370 -8 -49 -21 -133 -29 -185 -8 -52 -20 -129 -26 -170 -7 -41 -16 -106 -20
-145 -10 -86 -26 -194 -46 -300 -8 -44 -14 -95 -14 -113 0 -18 -6 -77 -14
-130 -28 -188 -62 -453 -91 -707 -29 -253 -12 -720 34 -925 5 -25 17 -81 27
-125 16 -80 64 -250 89 -315 37 -101 48 -127 61 -153 8 -16 14 -33 14 -39 0
-16 93 -197 140 -273 41 -65 185 -263 200 -275 4 -3 33 -36 65 -75 32 -38 76
-87 97 -107 21 -21 38 -40 38 -43 0 -3 19 -24 43 -48 24 -23 85 -88 137 -145
l94 -103 21 27 c26 32 43 26 99 -37 27 -29 35 -44 27 -52 -7 -7 -22 3 -51 36
-40 45 -70 54 -70 20 0 -8 46 -76 103 -152 117 -157 120 -162 149 -238 29 -80
29 -240 -1 -337 -55 -179 -162 -311 -306 -377 -40 -18 -67 -23 -140 -23 -81 0
-96 3 -143 29 -62 34 -81 54 -116 117 -22 39 -26 60 -26 122 0 47 6 89 16 113
52 119 73 152 110 172 28 14 44 -4 51 -56 13 -97 126 -150 228 -107 82 34 135
117 135 211 0 123 -113 224 -233 209 -105 -12 -129 -30 -312 -229 -33 -36 -67
-68 -75 -71 -8 -3 -22 -10 -30 -15 -49 -31 -130 -52 -130 -35 0 15 99 126 226
255 74 75 134 142 134 148 0 6 4 11 10 11 13 0 39 52 37 75 -1 11 7 24 18 29
30 13 59 110 53 177 -6 70 -52 167 -82 175 -33 8 -85 -17 -127 -60 l-36 -37 5
30 c6 41 -27 140 -57 174 -45 51 -83 67 -152 67 -69 0 -92 -10 -141 -64 -23
-25 -68 -137 -68 -168 0 -4 25 -8 56 -8 70 0 110 -22 125 -69 14 -41 6 -160
-15 -235 -8 -28 -22 -80 -32 -116 -9 -36 -23 -87 -30 -115 -34 -131 -44 -188
-50 -285 -7 -129 6 -219 42 -296 23 -51 74 -128 95 -144 14 -11 72 -56 91 -70
19 -15 16 -18 -74 -77 -167 -109 -237 -178 -347 -340 -60 -89 -131 -220 -131
-245 0 -7 -7 -22 -15 -32 -8 -11 -15 -28 -15 -38 0 -9 -6 -32 -14 -50 -57
-135 -84 -448 -57 -654 16 -118 58 -285 87 -344 6 -14 20 -45 30 -70 26 -64
99 -185 155 -255 52 -67 217 -225 234 -225 2 0 23 -13 47 -29 160 -107 402
-181 594 -181 86 0 238 27 283 50 9 4 51 25 94 46 42 21 77 42 77 46 0 5 5 8
11 8 13 0 103 73 160 130 43 42 144 176 185 245 130 217 207 483 219 755 5
121 2 145 -21 145 -11 0 -109 111 -188 212 -41 52 -47 65 -36 78 18 21 22 19
49 -20 27 -40 41 -43 67 -14 10 12 32 28 47 36 25 12 27 18 22 45 -7 31 -42
116 -75 181 -17 32 -18 37 -4 37 9 0 30 -7 47 -16 57 -30 64 -33 124 -48 85
-22 269 -10 260 17 -2 7 -14 11 -25 9 -22 -3 -26 5 -22 41 1 10 -6 27 -15 37
-9 10 -14 27 -11 37 5 17 -1 18 -77 15 -97 -4 -146 14 -219 77 -59 52 -115
166 -151 306 -22 83 -47 285 -47 373 0 134 -46 394 -91 512 -11 30 -23 64 -26
74 -8 25 -103 209 -112 216 -3 3 -15 21 -25 40 -30 55 -70 104 -74 91 -7 -22
-32 -11 -32 14 0 21 -13 34 -65 66 -36 23 -65 44 -65 48 0 20 17 17 56 -10 31
-21 44 -26 44 -16 0 8 -7 20 -15 27 -8 7 -15 17 -15 22 0 6 -13 27 -30 48 -16
21 -30 42 -30 48 0 6 -3 12 -7 14 -15 6 -197 276 -233 343 -6 11 -19 34 -29
50 -46 72 -109 211 -145 320 -61 182 -86 414 -86 805 0 157 2 296 5 310 2 14
9 156 15 315 6 160 13 306 15 325 5 44 13 302 21 630 3 140 7 278 9 305 2 28
6 201 9 385 8 443 17 813 21 875 2 28 6 165 10 305 3 140 10 329 15 420 28
494 40 920 29 1083 -10 165 -14 191 -32 218 -9 12 -17 15 -29 8z m-336 -4475
c21 -13 50 -43 65 -66 24 -36 28 -51 28 -113 -1 -61 -5 -76 -30 -115 -53 -78
-160 -116 -240 -85 -112 42 -173 156 -139 259 24 73 81 130 148 147 49 12 127
0 168 -27z m947 -3561 c33 -131 44 -171 59 -206 18 -45 14 -52 -24 -33 -36 19
-126 59 -181 81 -24 10 -43 19 -43 22 0 7 28 33 35 33 10 0 71 70 96 111 13
21 29 39 35 39 6 0 17 -21 23 -47z m-402 -392 c134 -30 242 -91 350 -196 51
-49 93 -95 93 -101 0 -7 3 -14 8 -16 40 -18 171 -321 172 -399 0 -40 19 -51
48 -29 31 25 62 26 62 3 0 -10 -16 -27 -38 -38 -29 -16 -38 -27 -40 -51 -4
-44 16 -48 83 -18 48 22 60 24 85 14 76 -32 54 -142 -38 -190 -26 -13 -52 -7
-51 12 0 7 19 27 42 43 79 57 53 119 -32 75 -22 -11 -52 -20 -66 -20 l-25 0 0
-108 c0 -249 -94 -518 -240 -686 -52 -59 -100 -106 -110 -106 -5 0 -10 -4 -10
-9 0 -10 -83 -65 -135 -90 -94 -45 -204 -71 -300 -71 -66 0 -189 21 -220 37
-11 6 -42 21 -70 33 -190 86 -348 289 -435 561 -33 102 -60 273 -60 378 1 214
66 432 184 616 47 74 217 243 271 270 22 11 46 26 53 33 7 6 19 12 27 12 7 0
26 6 42 14 41 22 150 44 213 45 30 0 92 -8 137 -18z"></path>
<path d="M11435 12792 c-23 -5 -155 -102 -155 -114 0 -4 -5 -8 -12 -8 -10 0
-455 -443 -628 -626 -274 -290 -434 -457 -547 -572 -73 -74 -133 -136 -133
-137 0 -2 -78 -82 -172 -177 -95 -96 -322 -325 -505 -509 l-331 -334 -6 -75
c-3 -41 -8 -187 -11 -325 -3 -137 -8 -318 -11 -401 -5 -97 -3 -153 3 -157 11
-7 32 15 98 98 22 28 50 61 62 75 12 14 34 39 48 55 14 17 40 49 57 73 17 23
35 42 40 42 4 0 8 5 8 11 0 10 100 132 134 164 6 6 40 46 75 90 35 44 70 85
78 91 7 6 13 16 13 23 0 6 3 11 8 11 4 0 34 34 67 75 33 41 63 75 68 75 4 0 7
7 7 15 0 8 4 15 8 15 4 0 25 22 45 49 21 27 51 64 67 83 35 39 37 48 10 48
-29 0 -60 39 -60 76 0 39 36 86 81 104 26 11 32 11 40 -1 13 -21 11 -27 -10
-34 -33 -10 -71 -46 -71 -65 0 -25 30 -41 53 -29 9 6 17 8 17 5 0 -3 9 2 21
12 95 79 95 84 15 179 -60 71 -64 79 -48 91 15 12 21 9 48 -22 17 -20 35 -36
40 -36 4 0 23 14 41 32 32 31 61 38 117 27 13 -3 24 4 32 20 11 21 10 26 -8
40 -18 15 -19 18 -4 30 17 14 51 7 42 -8 -3 -5 3 -7 14 -4 11 3 20 9 20 14 0
4 11 20 24 34 14 15 22 33 19 44 -5 18 28 47 39 36 3 -3 13 10 23 29 18 33 18
34 -2 62 -17 26 -21 64 -5 64 3 0 18 -12 34 -27 l28 -26 25 27 c14 15 25 31
25 37 0 5 5 9 10 9 6 0 4 12 -4 29 -12 23 -13 32 -3 46 12 15 14 15 26 1 8 -9
17 -16 22 -16 5 0 70 82 145 183 74 100 142 190 150 200 8 9 14 22 14 27 0 6
4 10 9 10 5 0 22 20 38 45 15 25 31 45 36 45 4 0 7 5 7 10 0 6 5 16 10 23 6 7
33 44 60 82 27 39 56 78 64 88 9 9 16 20 16 23 0 3 14 23 30 44 17 21 30 42
30 48 0 6 3 12 8 14 11 5 52 66 52 78 0 5 4 10 8 10 5 0 14 10 21 23 6 12 20
36 31 52 11 17 25 40 31 53 7 12 16 22 21 22 4 0 8 5 8 11 0 5 20 41 45 79 25
38 45 71 45 74 0 2 19 37 43 78 38 65 56 103 88 186 18 46 6 63 -36 54z"></path>
<path d="M7854 9222 c-170 -165 -180 -175 -284 -261 -36 -29 -66 -57 -68 -62
-2 -5 -10 -9 -18 -9 -8 0 -14 -4 -14 -9 0 -5 -20 -22 -45 -38 -25 -15 -45 -31
-45 -35 0 -5 -6 -8 -14 -8 -8 0 -16 -3 -18 -7 -3 -9 -64 -53 -72 -53 -2 0 -37
-19 -78 -43 -150 -88 -363 -162 -613 -213 -44 -9 -108 -22 -142 -30 -34 -8
-72 -14 -85 -14 -13 0 -54 -6 -93 -14 -38 -8 -115 -22 -170 -31 -304 -50 -437
-95 -635 -214 -86 -52 -210 -142 -210 -153 0 -5 -7 -8 -15 -8 -8 0 -15 -4 -15
-8 0 -5 -27 -28 -60 -52 -33 -24 -60 -47 -60 -52 0 -4 -7 -8 -15 -8 -8 0 -15
-4 -15 -9 0 -13 -184 -130 -259 -163 -82 -38 -185 -68 -231 -68 -32 0 -122 26
-145 42 -47 33 -95 85 -119 129 -25 46 -30 65 -30 134 -1 59 4 92 18 123 22
49 43 50 38 3 -4 -39 16 -131 29 -131 5 0 9 -5 9 -11 0 -18 67 -72 107 -86 50
-17 90 -16 144 2 114 39 176 167 145 300 -8 33 -19 61 -25 63 -6 2 -11 8 -11
13 0 14 -59 67 -94 86 -44 23 -84 33 -149 39 -48 4 -63 1 -84 -16 -19 -15 -35
-19 -54 -15 -27 6 -48 -8 -29 -20 5 -3 10 -14 10 -23 0 -14 -3 -13 -21 5 -20
20 -24 20 -46 6 -22 -15 -23 -17 -7 -34 23 -25 8 -46 -17 -23 -25 22 -50 5
-30 -20 13 -16 6 -40 -9 -31 -5 3 -11 -3 -14 -12 -3 -10 -15 -23 -27 -28 -57
-27 -81 -237 -38 -347 39 -103 133 -200 239 -249 25 -11 63 -29 85 -39 40 -18
40 -18 15 -27 -14 -6 -50 -18 -80 -27 -61 -19 -238 -103 -258 -122 -6 -7 -21
-16 -32 -19 -11 -3 -20 -11 -20 -16 0 -5 -6 -9 -14 -9 -8 0 -16 -3 -18 -8 -1
-4 -25 -25 -53 -47 -65 -51 -187 -175 -227 -231 -17 -24 -35 -44 -40 -44 -4 0
-8 -7 -8 -15 0 -8 -4 -15 -8 -15 -5 0 -14 -10 -21 -22 -14 -26 -26 -47 -62
-103 -31 -48 -101 -193 -124 -255 -118 -327 -114 -636 11 -880 16 -30 34 -61
41 -68 7 -7 13 -17 13 -20 0 -4 20 -30 45 -57 25 -28 45 -53 45 -57 0 -5 5 -8
10 -8 6 0 21 -11 33 -24 28 -30 168 -126 183 -126 6 0 17 -6 23 -14 6 -8 22
-16 35 -18 22 -4 22 -3 9 23 -28 57 24 129 95 129 30 0 43 -8 79 -47 49 -53
51 -48 -35 -106 -53 -36 -53 -36 -30 -51 44 -28 85 -24 100 9 12 26 48 35 48
12 0 -7 -7 -22 -15 -34 -14 -20 -14 -23 5 -33 63 -34 391 -36 515 -4 107 28
195 56 201 65 3 5 12 9 20 9 38 0 344 179 344 201 0 5 6 9 13 9 6 1 60 49 118
108 148 150 222 251 302 412 123 250 165 534 117 781 -11 56 -18 104 -15 107
2 3 30 0 61 -7 32 -6 76 -11 98 -11 46 1 142 22 171 38 11 6 27 13 35 17 63
25 159 108 233 200 64 80 157 219 157 234 0 6 4 11 9 11 5 0 14 14 21 30 7 17
16 30 21 30 5 0 9 5 9 11 0 18 90 147 132 189 70 69 136 71 197 6 42 -44 61
-33 103 58 23 49 23 135 1 180 -10 19 -39 48 -65 65 -38 25 -57 31 -101 31
-55 0 -147 -32 -147 -50 0 -6 -7 -10 -15 -10 -8 0 -15 -5 -15 -12 0 -9 -3 -9
-11 -1 -7 7 -14 35 -16 64 -8 103 -52 123 -158 73 -137 -65 -198 -193 -210
-444 -6 -125 -8 -164 -21 -317 -10 -120 -38 -118 -77 6 -20 63 -21 143 -4 261
15 98 8 161 -24 228 -28 57 -44 73 -100 100 -80 39 -182 26 -240 -29 -51 -49
-72 -96 -73 -168 0 -58 4 -73 30 -111 40 -60 84 -83 151 -76 31 2 63 13 80 26
40 29 63 18 63 -29 0 -46 -21 -116 -49 -161 -11 -19 -24 -41 -27 -49 -10 -20
-73 -81 -84 -81 -6 0 -10 -4 -10 -9 0 -13 -93 -41 -137 -41 -84 0 -191 59
-242 134 -85 123 -96 328 -25 469 8 16 14 33 14 39 0 15 72 128 81 128 5 0 9
5 9 10 0 18 96 102 152 133 29 16 73 36 98 44 82 26 382 42 740 38 234 -3 382
0 490 10 155 14 303 37 350 54 14 6 39 13 57 16 29 6 32 9 27 35 -6 26 -4 29
27 32 31 3 34 6 37 41 3 29 7 37 23 37 16 0 19 -7 19 -45 0 -25 4 -45 10 -45
10 0 67 30 115 61 17 10 40 24 53 30 12 7 22 16 22 21 0 4 5 8 11 8 12 0 87
58 132 102 16 15 36 33 45 40 32 24 44 67 33 117 -24 108 -41 327 -41 529 0
163 -3 212 -12 212 -7 -1 -85 -71 -174 -158z m-2529 -1549 c-3 -16 -9 -72 -12
-125 -5 -95 -13 -113 -38 -89 -6 5 -53 27 -105 49 -52 22 -96 46 -98 54 -1 7
26 27 65 46 38 18 93 46 123 62 68 37 74 37 65 3z m-268 -453 c130 -40 255
-116 318 -192 48 -59 51 -64 58 -78 4 -8 16 -30 28 -49 47 -79 79 -213 79
-336 0 -273 -120 -552 -326 -759 -164 -164 -409 -296 -629 -336 -56 -11 -105
-29 -105 -39 0 -11 -76 -51 -84 -44 -13 13 -6 43 11 43 42 0 -9 18 -82 30 -44
6 -93 14 -109 18 l-30 5 24 -34 c13 -19 44 -57 68 -86 41 -49 47 -73 18 -73
-21 0 -145 162 -150 196 -2 9 -27 31 -58 48 -152 86 -259 208 -314 360 -21 57
-44 191 -44 252 0 79 27 232 54 309 39 110 146 305 167 305 5 0 9 5 9 10 0 6
8 18 18 28 9 10 35 38 57 63 55 59 144 139 155 139 6 0 10 4 10 9 0 8 90 69
125 84 11 4 22 11 25 15 6 8 55 32 110 55 19 8 49 20 65 27 48 19 135 42 200
50 90 13 260 2 332 -20z"></path>
<path d="M10227 5808 c-73 -40 -145 -151 -146 -226 -1 -49 42 -135 85 -170 85
-71 210 -64 289 15 24 24 46 51 48 61 3 9 3 0 2 -20 -2 -21 -13 -58 -25 -82
l-21 -45 27 -30 c26 -30 27 -30 55 -14 23 14 31 15 41 4 11 -10 9 -16 -9 -31
-14 -11 -23 -29 -23 -46 l0 -28 29 33 c37 42 91 199 91 267 0 136 -91 268
-217 316 -67 25 -176 23 -226 -4z"></path>
<path d="M0 500 l0 -500 7500 0 7500 0 0 500 0 500 -7500 0 -7500 0 0 -500z
m860 144 l0 -56 34 6 c41 8 92 -11 121 -44 17 -19 21 -39 24 -141 l3 -119 -36
0 -36 0 0 104 c0 121 -9 139 -69 134 l-36 -3 -3 -117 -3 -118 -34 0 -35 0 0
205 0 205 35 0 35 0 0 -56z m630 -54 l49 0 3 37 c2 30 9 41 36 56 l32 19 0
-56 0 -56 41 0 c39 0 40 -1 37 -32 -3 -30 -6 -33 -40 -36 l-38 -3 0 -66 c0
-71 16 -103 52 -103 13 0 18 -8 18 -30 0 -28 -3 -30 -36 -30 -75 0 -104 44
-104 160 l0 70 -50 0 -50 0 0 -69 c0 -74 14 -101 51 -101 14 0 19 -7 19 -30 0
-28 -2 -30 -39 -30 -28 0 -49 7 -68 24 -26 23 -28 30 -31 115 -3 70 -7 91 -18
91 -9 0 -14 12 -14 35 0 24 5 35 15 35 11 0 15 11 15 38 0 33 4 40 33 54 l32
15 3 -53 3 -54 49 0z m1010 55 l0 -55 35 0 c33 0 35 -2 35 -35 0 -33 -2 -35
-35 -35 l-35 0 0 -76 c0 -75 0 -76 30 -87 23 -9 30 -17 30 -39 0 -26 -3 -28
-37 -28 -71 1 -93 37 -93 148 0 71 -2 80 -20 85 -15 4 -20 14 -20 36 0 24 4
31 20 31 16 0 20 7 20 38 0 30 5 40 28 54 15 9 30 17 35 17 4 1 7 -24 7 -54z
m710 -56 l0 -111 47 56 c45 53 50 56 92 56 l45 0 -35 -37 c-19 -21 -47 -52
-62 -69 l-28 -31 61 -78 c33 -43 60 -79 60 -81 0 -2 -17 -4 -39 -4 -35 0 -42
5 -80 55 -23 31 -46 53 -52 50 -5 -4 -9 -28 -9 -56 l0 -49 -35 0 -35 0 0 205
0 205 35 0 35 0 0 -111z m-2468 -10 c14 -8 15 -14 7 -39 -9 -26 -13 -28 -35
-19 -38 14 -80 11 -95 -7 -11 -14 -11 -18 4 -29 10 -7 35 -15 57 -19 96 -15
119 -117 38 -166 -37 -22 -107 -26 -157 -9 -33 12 -34 13 -22 44 7 17 17 20
82 20 67 0 74 2 74 20 0 19 -16 27 -76 40 -48 9 -74 39 -74 83 0 47 24 78 69
91 33 10 100 5 128 -10z m1131 10 c51 -14 77 -57 77 -126 l0 -53 -85 0 c-76 0
-85 -2 -85 -19 0 -39 34 -48 105 -27 11 3 29 -1 40 -9 19 -15 19 -16 -8 -43
-24 -23 -35 -27 -88 -27 -56 0 -63 3 -90 33 -27 31 -29 37 -29 121 0 100 16
133 73 150 43 12 46 12 90 0z m265 -26 c3 -31 1 -33 -27 -33 -49 0 -61 -29
-61 -142 l0 -98 -30 0 -30 0 0 123 c0 115 2 125 23 145 28 27 65 42 97 39 20
-2 26 -8 28 -34z m182 26 c54 -11 56 -15 39 -53 -10 -21 -15 -23 -36 -15 -37
14 -79 11 -94 -7 -11 -14 -11 -18 4 -29 10 -7 35 -15 56 -19 52 -8 80 -33 87
-77 12 -74 -74 -125 -178 -105 -52 10 -61 19 -48 48 11 23 16 24 83 24 60 -1
72 2 75 16 4 19 -12 28 -86 48 -34 9 -46 18 -60 46 -16 34 -15 37 3 72 14 25
31 41 55 49 44 15 40 15 100 2z m712 1 c33 -10 78 -50 78 -70 0 -5 -13 -13
-29 -18 -23 -8 -31 -7 -45 9 -19 23 -59 25 -80 3 -19 -19 -22 -134 -4 -152 17
-17 68 -15 89 3 20 19 69 10 69 -12 0 -43 -85 -82 -153 -69 -58 11 -81 46 -85
131 -6 111 18 161 83 178 32 8 38 7 77 -3z m-1892 -115 c0 -105 2 -115 20
-125 12 -6 33 -10 48 -8 l27 3 3 123 3 122 34 0 35 0 0 -143 0 -144 -39 -11
c-82 -25 -162 -8 -186 39 -11 20 -15 61 -15 144 l0 115 35 0 35 0 0 -115z
m1610 81 c0 -34 -1 -35 -42 -38 -43 -3 -43 -3 -46 -45 -3 -42 -4 -43 -39 -43
l-35 0 4 57 c6 75 36 103 109 103 l49 0 0 -34z m95 -163 c-1 -75 -29 -103
-102 -103 l-54 0 3 33 c3 29 6 32 43 37 39 5 40 6 43 48 3 42 4 43 35 40 32
-3 32 -4 32 -55z"></path>
</g>
</svg><style>@media (prefers-color-scheme: light) { :root { filter: none; } }
</style></svg>